<?xml version="1.0" encoding="utf-8"?>
<!-- Generator: Adobe Illustrator 16.0.0, SVG Export Plug-In . SVG Version: 6.00 Build 0)  -->
<!DOCTYPE svg PUBLIC "-//W3C//DTD SVG 1.1//EN" "http://www.w3.org/Graphics/SVG/1.1/DTD/svg11.dtd">
<svg version="1.1" id="Ebene_1" xmlns="http://www.w3.org/2000/svg" xmlns:xlink="http://www.w3.org/1999/xlink" x="0px" y="0px"
	 width="900px" height="300px" viewBox="0 0 900 300" enable-background="new 0 0 900 300" xml:space="preserve">
<rect x="1" fill="#481E70" width="900" height="300"/>
<path fill="#FFFFFF" d="M119.583,31.01C55.749,31.01,4,82.757,4,146.592s51.749,115.584,115.583,115.584
	c63.834,0,115.583-51.749,115.583-115.584S183.417,31.01,119.583,31.01z M186.623,185.298l-67.04,38.706l-67.039-38.706v-77.411
	l67.039-38.705l67.04,38.705V185.298z"/>
<g>
	<path fill="#FFFFFF" d="M393.924,174.252c0,5.839,0.068,11.678,0.208,17.516c0.137,5.839,0.762,12.304,1.876,19.394h-19.393
		l-3.753-13.555h-0.834c-2.783,4.868-6.777,8.794-11.99,11.782c-5.213,2.987-11.364,4.482-18.454,4.482
		c-13.069,0-23.218-4.307-30.444-12.928c-7.23-8.618-10.843-22.104-10.843-40.454c0-17.792,4.03-31.624,12.094-41.496
		c8.061-9.869,19.878-14.805,35.449-14.805c4.307,0,7.852,0.244,10.634,0.729c2.779,0.489,5.559,1.287,8.341,2.398v-42.33h27.108
		V174.252z M347.84,190.934c5.281,0,9.452-1.283,12.511-3.857c3.056-2.57,5.213-6.288,6.464-11.156v-44.207
		c-1.949-1.528-4.102-2.675-6.464-3.441c-2.366-0.762-5.422-1.146-9.175-1.146c-7.647,0-13.381,2.574-17.203,7.715
		c-3.825,5.145-5.734,13.971-5.734,26.482c0,8.898,1.564,16.057,4.692,21.479C336.059,188.223,341.027,190.934,347.84,190.934z"/>
	<path fill="#FFFFFF" d="M501.102,201.985c-4.17,3.337-9.836,6.151-16.994,8.445c-7.162,2.294-14.772,3.44-22.834,3.44
		c-16.822,0-29.125-4.9-36.908-14.7c-7.787-9.801-11.677-23.251-11.677-40.35c0-18.35,4.379-32.112,13.137-41.288
		c8.758-9.175,21.061-13.763,36.909-13.763c5.281,0,10.426,0.697,15.431,2.085c5.005,1.391,9.452,3.685,13.346,6.881
		c3.891,3.199,7.018,7.507,9.384,12.928c2.362,5.422,3.545,12.166,3.545,20.227c0,2.919-0.177,6.047-0.521,9.383
		c-0.349,3.337-0.87,6.812-1.564,10.426h-62.557c0.417,8.759,2.675,15.362,6.776,19.811c4.1,4.45,10.739,6.672,19.915,6.672
		c5.698,0,10.807-0.866,15.326-2.606c4.516-1.736,7.956-3.509,10.322-5.317L501.102,201.985z M462.316,125.458
		c-7.09,0-12.339,2.121-15.744,6.36c-3.407,4.242-5.457,9.905-6.151,16.995h38.786c0.554-7.507-0.593-13.274-3.44-17.308
		C472.915,127.475,468.432,125.458,462.316,125.458z"/>
	<path fill="#FFFFFF" d="M566.785,182.176c0-2.779-1.183-5.005-3.545-6.673c-2.365-1.668-5.284-3.196-8.758-4.587
		c-3.477-1.389-7.298-2.815-11.469-4.275c-4.17-1.459-7.995-3.473-11.469-6.047c-3.477-2.57-6.396-5.839-8.758-9.801
		c-2.365-3.962-3.545-9.07-3.545-15.326c0-10.286,3.057-18.142,9.175-23.563c6.116-5.422,14.942-8.133,26.482-8.133
		c7.924,0,15.082,0.834,21.479,2.502c6.393,1.668,11.396,3.545,15.014,5.63l-6.048,19.601c-3.199-1.251-7.229-2.571-12.094-3.962
		c-4.868-1.388-9.801-2.085-14.806-2.085c-8.063,0-12.094,3.128-12.094,9.384c0,2.502,1.179,4.519,3.545,6.047
		c2.361,1.532,5.281,2.955,8.758,4.275c3.473,1.323,7.298,2.747,11.469,4.274c4.17,1.531,7.992,3.513,11.469,5.943
		c3.473,2.434,6.393,5.598,8.758,9.487c2.362,3.894,3.545,8.898,3.545,15.014c0,10.566-3.372,18.872-10.113,24.919
		c-6.744,6.047-16.858,9.07-30.34,9.07c-7.37,0-14.284-0.938-20.748-2.814c-6.465-1.877-11.714-4.066-15.744-6.568l7.507-20.228
		c3.196,1.809,7.436,3.581,12.72,5.317c5.282,1.74,10.703,2.606,16.266,2.606c4.03,0,7.262-0.762,9.696-2.293
		C565.567,188.363,566.785,185.793,566.785,182.176z"/>
	<path fill="#FFFFFF" d="M611.617,106.69h19.81l3.128,12.512h0.834c3.613-5.282,7.889-9.175,12.824-11.678
		c4.933-2.502,10.947-3.753,18.037-3.753c13.065,0,22.866,4.138,29.402,12.407c6.532,8.272,9.801,21.582,9.801,39.932
		c0,8.898-1.043,16.927-3.128,24.085c-2.086,7.161-5.181,13.241-9.279,18.245c-4.103,5.005-9.106,8.83-15.014,11.469
		c-5.91,2.64-12.688,3.962-20.331,3.962c-4.311,0-7.855-0.312-10.635-0.938c-2.782-0.626-5.562-1.636-8.341-3.024v42.748h-27.108
		V106.69z M658.118,126.709c-5.285,0-9.42,1.323-12.407,3.962c-2.991,2.642-5.317,6.604-6.985,11.886v43.373
		c1.945,1.531,4.065,2.746,6.359,3.648c2.294,0.906,5.317,1.355,9.071,1.355c7.783,0,13.622-2.743,17.516-8.236
		c3.891-5.49,5.839-14.561,5.839-27.212c0-9.175-1.531-16.265-4.588-21.27C669.863,129.211,664.928,126.709,658.118,126.709z"/>
	<path fill="#FFFFFF" d="M723.594,112.738c5.558-2.502,12.162-4.483,19.81-5.943c7.644-1.46,15.639-2.189,23.979-2.189
		c7.227,0,13.274,0.87,18.142,2.606c4.864,1.74,8.723,4.206,11.573,7.402c2.848,3.2,4.864,7.021,6.047,11.469
		c1.18,4.451,1.772,9.456,1.772,15.014c0,6.119-0.208,12.271-0.625,18.454c-0.417,6.188-0.662,12.271-0.73,18.246
		c-0.071,5.979,0.104,11.781,0.521,17.412c0.417,5.63,1.46,10.947,3.128,15.952h-22.104l-4.379-14.389h-1.043
		c-2.782,4.311-6.64,8.028-11.572,11.156c-4.937,3.128-11.297,4.691-19.08,4.691c-4.868,0-9.247-0.729-13.137-2.189
		c-3.894-1.46-7.23-3.545-10.01-6.256c-2.782-2.711-4.936-5.906-6.464-9.592c-1.531-3.682-2.294-7.819-2.294-12.407
		c0-6.393,1.424-11.781,4.274-16.16c2.848-4.379,6.95-7.924,12.304-10.635c5.35-2.711,11.745-4.588,19.184-5.63
		c7.436-1.043,15.744-1.355,24.919-0.938c0.971-7.784,0.417-13.378-1.668-16.787c-2.086-3.405-6.745-5.108-13.972-5.108
		c-5.422,0-11.156,0.557-17.203,1.668c-6.047,1.114-11.02,2.574-14.909,4.379L723.594,112.738z M758,190.309
		c5.421,0,9.729-1.216,12.928-3.649c3.196-2.431,5.559-5.037,7.09-7.819v-13.555c-4.311-0.417-8.445-0.485-12.407-0.208
		c-3.962,0.28-7.474,0.905-10.53,1.877c-3.06,0.974-5.493,2.365-7.298,4.17c-1.809,1.809-2.711,4.103-2.711,6.882
		c0,3.894,1.146,6.917,3.44,9.07C750.806,189.233,753.966,190.309,758,190.309z"/>
	<path fill="#FFFFFF" d="M816.801,106.69h14.388V87.089l27.108-7.715v27.316h25.439v22.938h-25.439v40.036
		c0,7.23,0.729,12.407,2.189,15.535c1.459,3.128,4.203,4.692,8.236,4.692c2.779,0,5.178-0.277,7.194-0.834
		c2.014-0.555,4.274-1.389,6.776-2.503l4.797,20.853c-3.754,1.809-8.133,3.336-13.138,4.588c-5.004,1.251-10.08,1.876-15.222,1.876
		c-9.592,0-16.649-2.47-21.165-7.402c-4.52-4.933-6.777-13.032-6.777-24.293v-52.548h-14.388V106.69z"/>
</g>
<g>
</g>
<g>
</g>
<g>
</g>
<g>
</g>
<g>
</g>
<g>
</g>
<g>
</g>
<g>
</g>
<g>
</g>
<g>
</g>
<g>
</g>
<g>
</g>
<g>
</g>
<g>
</g>
<g>
</g>
</svg>
