<?xml version="1.0" encoding="utf-8"?>
<!-- Generator: Adobe Illustrator 16.0.0, SVG Export Plug-In . SVG Version: 6.00 Build 0)  -->
<!DOCTYPE svg PUBLIC "-//W3C//DTD SVG 1.1//EN" "http://www.w3.org/Graphics/SVG/1.1/DTD/svg11.dtd">
<svg version="1.1" xmlns="http://www.w3.org/2000/svg" xmlns:xlink="http://www.w3.org/1999/xlink" x="0px" y="0px" width="33px"
	 height="33px" viewBox="0 0 33 33" enable-background="new 0 0 33 33" xml:space="preserve">
<g id="Base_Marker" display="none">
	<circle display="inline" fill="#4D4D4D" cx="16.5" cy="14.417" r="14.125"/>
	<polygon display="inline" fill="#4D4D4D" points="16.5,32.896 26.145,24.708 6.856,24.708 	"/>
</g>
<g id="Base_Marker_Narrow" display="none">
	<circle display="inline" fill="#4D4D4D" cx="16.5" cy="12.75" r="12.333"/>
	<polygon display="inline" fill="#4D4D4D" points="16.5,32.25 20.562,23.025 12.439,23.025 	"/>
</g>
<g id="Base_Marker_1_" display="none">
	<path display="inline" fill="#F5E61F" stroke="#000000" stroke-width="2" stroke-miterlimit="10" d="M27.886,12.807
		c0-6.288-5.098-11.385-11.386-11.385c-6.288,0-11.385,5.098-11.385,11.385c0,5.21,3.503,9.593,8.28,10.945l3.105,6.352l3.106-6.352
		C24.383,22.399,27.886,18.018,27.886,12.807z"/>
</g>
<g id="Ebene_12">
	<path fill="#4D4D4D" stroke="#FFFFFF" stroke-width="2" stroke-miterlimit="10" d="M27.886,12.807
		c0-6.288-5.098-11.385-11.386-11.385c-6.288,0-11.385,5.098-11.385,11.385c0,5.21,3.503,9.593,8.28,10.945l3.105,6.352l3.106-6.352
		C24.383,22.399,27.886,18.018,27.886,12.807z"/>
</g>
<g id="Plus" display="none">
	<rect x="9.22" y="11.5" display="inline" fill="#FFFFFF" width="14.562" height="2"/>
	<rect x="15.5" y="5.219" display="inline" fill="#FFFFFF" width="2" height="14.562"/>
</g>
<g id="Plus_black" display="none">
	<rect x="9.22" y="11.5" display="inline" width="14.562" height="2"/>
	<rect x="15.5" y="5.219" display="inline" width="2" height="14.562"/>
</g>
<g id="Plus_1" display="none">
	<rect x="13.209" y="5.583" display="inline" fill="#FFFFFF" width="1.385" height="11.083"/>
	<rect x="8.36" y="10.433" display="inline" fill="#FFFFFF" width="11.083" height="1.385"/>
	<g display="inline">
		<path fill="#FFFFFF" d="M19.696,20.627h0.949c0.262,0,0.451,0.049,0.568,0.146s0.176,0.258,0.176,0.48
			c0,0.219-0.057,0.377-0.17,0.475s-0.305,0.146-0.574,0.146h-3.457c-0.27,0-0.461-0.049-0.574-0.146s-0.17-0.256-0.17-0.475
			c0-0.223,0.058-0.383,0.173-0.48s0.306-0.146,0.571-0.146h1.09v-4.945l-0.656,0.17c-0.102,0.023-0.186,0.041-0.252,0.053
			s-0.115,0.018-0.146,0.018c-0.16,0-0.284-0.051-0.372-0.152s-0.132-0.246-0.132-0.434c0-0.137,0.049-0.252,0.146-0.346
			s0.248-0.166,0.451-0.217l1.453-0.398c0.121-0.031,0.221-0.055,0.299-0.07s0.143-0.023,0.193-0.023
			c0.156,0,0.268,0.043,0.334,0.129s0.1,0.23,0.1,0.434V20.627z"/>
	</g>
</g>
<g id="Ebene_7" display="none">
	<rect x="15.808" y="3.333" display="inline" fill="#FFFFFF" width="1.385" height="11.083"/>
	<rect x="10.958" y="8.183" display="inline" fill="#FFFFFF" width="11.083" height="1.385"/>
	<g display="inline">
		<path fill="#FFFFFF" d="M17.61,25.312h1.187c0.327,0,0.564,0.061,0.71,0.183s0.22,0.322,0.22,0.601
			c0,0.273-0.071,0.471-0.213,0.593s-0.381,0.183-0.718,0.183h-4.323c-0.337,0-0.576-0.061-0.718-0.183s-0.212-0.32-0.212-0.593
			c0-0.279,0.072-0.479,0.216-0.601c0.144-0.122,0.382-0.183,0.714-0.183h1.363v-6.184l-0.82,0.213
			c-0.127,0.029-0.232,0.051-0.315,0.066c-0.083,0.015-0.145,0.022-0.184,0.022c-0.2,0-0.355-0.063-0.465-0.19
			s-0.165-0.308-0.165-0.542c0-0.171,0.061-0.315,0.183-0.432s0.31-0.208,0.564-0.271l1.817-0.499
			c0.151-0.039,0.276-0.068,0.374-0.088c0.098-0.019,0.178-0.029,0.242-0.029c0.195,0,0.334,0.054,0.417,0.162
			s0.125,0.288,0.125,0.542V25.312z"/>
	</g>
</g>
<g id="Camera" display="none">
	<g display="inline">
		<circle fill="#FFFFFF" cx="16.507" cy="13.268" r="2.502"/>
		<path fill="#FFFFFF" d="M19.004,8.486V7.36h-5.003v1.126h-1.55v-0.76h-2.174v0.76H9.709v9.451h0.568h2.174h1.55h5.003h4.295V8.486
			H19.004z M16.507,16.893c-2.002,0-3.625-1.623-3.625-3.625c0-2.001,1.623-3.624,3.625-3.624s3.625,1.623,3.625,3.624
			C20.132,15.27,18.509,16.893,16.507,16.893z"/>
	</g>
</g>
<g id="Camera_1" display="none">
	<g display="inline">
		<path fill="#FFFFFF" d="M15.042,18.514c-0.055,0.009-0.096,0.015-0.124,0.019c-0.028,0.004-0.052,0.006-0.073,0.006
			c-0.131,0-0.238-0.037-0.32-0.111s-0.124-0.172-0.124-0.294c0-0.102,0.036-0.19,0.108-0.267c0.072-0.076,0.175-0.133,0.311-0.171
			l1.882-0.507c0.046-0.013,0.092-0.022,0.136-0.029s0.09-0.009,0.136-0.009c0.081,0,0.144,0.037,0.19,0.111
			c0.046,0.074,0.069,0.174,0.069,0.301v6.857h1.014c0.376,0,0.615,0.031,0.716,0.092c0.102,0.062,0.152,0.177,0.152,0.346
			c0,0.152-0.042,0.266-0.127,0.342c-0.084,0.076-0.211,0.114-0.38,0.114h-3.79c-0.169,0-0.296-0.038-0.38-0.114
			c-0.084-0.076-0.127-0.19-0.127-0.342c0-0.169,0.051-0.284,0.152-0.346c0.102-0.061,0.34-0.092,0.716-0.092h1.052v-6.191
			L15.042,18.514z"/>
	</g>
	<g display="inline">
		<circle fill="#FFFFFF" cx="16.507" cy="10.175" r="2.284"/>
		<path fill="#FFFFFF" d="M18.786,5.81V4.782h-4.567V5.81h-1.415V5.117H10.82V5.81h-0.518v8.627h0.518h1.984h1.415h4.567h3.92V5.81
			H18.786z M16.507,13.483c-1.828,0-3.309-1.481-3.309-3.308c0-1.828,1.481-3.309,3.309-3.309s3.309,1.481,3.309,3.309
			C19.815,12.002,18.334,13.483,16.507,13.483z"/>
	</g>
</g>
<g id="Unknown">
	<g>
		<path fill="#FFFFFF" d="M16.832,15.098h-1.578v-0.659c0-2.825,3.051-2.791,3.051-4.697c0-0.954-0.849-1.491-1.976-1.491
			c-0.814,0-1.716,0.382-2.427,1.248l-1.109-0.832c1.005-1.179,2.253-1.733,3.692-1.733c2.184,0,3.484,1.317,3.484,2.704
			c0,2.773-3.137,2.41-3.137,4.889V15.098z M16.086,16.883c0.693,0,1.213,0.537,1.213,1.196c0,0.676-0.52,1.213-1.213,1.213
			c-0.676,0-1.196-0.537-1.196-1.213C14.89,17.42,15.41,16.883,16.086,16.883z"/>
	</g>
</g>
<g id="Colors">
	<rect x="38.231" y="5.048" fill="#481E70" width="23.979" height="7.635"/>
	<rect x="38.231" y="20.317" fill="#F5E61F" width="23.979" height="7.635"/>
	<rect x="38.231" y="12.683" fill="#47C06E" width="23.979" height="7.634"/>
	<g>
		<rect x="62.21" y="5.049" fill="none" width="23.187" height="7.634"/>
		<path fill="#FFFFFF" d="M67.202,8.916V7.952h-1.646V7.636l1.58-2.261h0.517v2.201h0.496v0.375h-0.496v0.964H67.202z M67.202,7.576
			V6.394c0-0.186,0.005-0.371,0.016-0.556h-0.016c-0.109,0.207-0.196,0.359-0.294,0.523l-0.866,1.204v0.011H67.202z"/>
		<path fill="#FFFFFF" d="M68.472,8.017c0-0.447,0.267-0.763,0.703-0.948l-0.005-0.016c-0.392-0.186-0.561-0.491-0.561-0.795
			c0-0.561,0.474-0.942,1.095-0.942c0.687,0,1.03,0.43,1.03,0.872c0,0.299-0.147,0.621-0.583,0.828v0.017
			c0.441,0.174,0.713,0.485,0.713,0.915c0,0.616-0.528,1.03-1.204,1.03C68.918,8.976,68.472,8.535,68.472,8.017z M70.378,7.996
			c0-0.431-0.299-0.638-0.779-0.774c-0.414,0.12-0.637,0.393-0.637,0.73c-0.017,0.36,0.256,0.676,0.708,0.676
			C70.1,8.627,70.378,8.36,70.378,7.996z M69.06,6.225c0,0.354,0.267,0.544,0.675,0.654c0.305-0.104,0.54-0.322,0.54-0.643
			c0-0.283-0.169-0.577-0.6-0.577C69.278,5.659,69.06,5.92,69.06,6.225z"/>
		<path fill="#FFFFFF" d="M72.351,5.822H72.34l-0.616,0.333l-0.093-0.365l0.773-0.414h0.409v3.541h-0.463V5.822z"/>
		<path fill="#FFFFFF" d="M76.175,7.195h-1.427v1.324h1.591v0.397h-2.064V5.245h1.983v0.397h-1.509v1.16h1.427V7.195z"/>
		<path fill="#FFFFFF" d="M79.084,5.375v0.316l-1.542,3.225h-0.496l1.536-3.132V5.773h-1.732V5.375H79.084z"/>
		<path fill="#FFFFFF" d="M81.934,7.107c0,1.204-0.447,1.869-1.231,1.869c-0.692,0-1.16-0.648-1.171-1.819
			c0-1.188,0.512-1.841,1.231-1.841C81.509,5.315,81.934,5.98,81.934,7.107z M80.011,7.162c0,0.92,0.284,1.443,0.719,1.443
			c0.49,0,0.725-0.572,0.725-1.476c0-0.872-0.224-1.444-0.719-1.444C80.316,5.686,80.011,6.198,80.011,7.162z"/>
	</g>
	<g>
		<rect x="62.21" y="12.683" fill="none" width="23.187" height="7.635"/>
		<path fill="#FFFFFF" d="M67.02,16.551v-0.964h-1.646v-0.316l1.58-2.261h0.517v2.201h0.496v0.375h-0.496v0.964H67.02z
			 M67.02,15.211v-1.182c0-0.186,0.005-0.371,0.016-0.556H67.02c-0.109,0.207-0.196,0.359-0.294,0.523L65.859,15.2v0.011H67.02z"/>
		<path fill="#FFFFFF" d="M70.631,13.01v0.316l-1.542,3.225h-0.496l1.536-3.132v-0.011h-1.732V13.01H70.631z"/>
		<path fill="#FFFFFF" d="M73.862,16.431c-0.174,0.087-0.523,0.174-0.969,0.174c-1.035,0-1.814-0.654-1.814-1.858
			c0-1.149,0.779-1.928,1.917-1.928c0.458,0,0.746,0.098,0.872,0.164l-0.115,0.387c-0.18-0.087-0.436-0.153-0.741-0.153
			c-0.861,0-1.433,0.55-1.433,1.515c0,0.899,0.518,1.476,1.411,1.476c0.289,0,0.583-0.06,0.774-0.152L73.862,16.431z"/>
		<path fill="#FFFFFF" d="M76.641,14.742c0,1.204-0.447,1.869-1.231,1.869c-0.692,0-1.16-0.648-1.171-1.819
			c0-1.188,0.512-1.841,1.231-1.841C76.216,12.95,76.641,13.615,76.641,14.742z M74.718,14.797c0,0.92,0.284,1.443,0.719,1.443
			c0.49,0,0.725-0.572,0.725-1.476c0-0.872-0.224-1.444-0.719-1.444C75.023,13.32,74.718,13.833,74.718,14.797z"/>
		<path fill="#FFFFFF" d="M79.104,13.348c-0.098-0.005-0.223,0-0.359,0.022c-0.752,0.125-1.149,0.675-1.231,1.258h0.017
			c0.169-0.224,0.463-0.409,0.855-0.409c0.626,0,1.068,0.452,1.068,1.144c0,0.648-0.441,1.248-1.177,1.248
			c-0.757,0-1.253-0.588-1.253-1.509c0-0.697,0.25-1.247,0.599-1.596c0.294-0.289,0.687-0.469,1.133-0.523
			c0.142-0.022,0.261-0.027,0.349-0.027V13.348z M78.967,15.391c0-0.507-0.289-0.812-0.73-0.812c-0.289,0-0.556,0.18-0.687,0.436
			c-0.032,0.055-0.054,0.125-0.054,0.212c0.011,0.583,0.278,1.013,0.779,1.013C78.689,16.24,78.967,15.897,78.967,15.391z"/>
		<path fill="#FFFFFF" d="M81.947,14.83H80.52v1.324h1.591v0.397h-2.064v-3.671h1.983v0.397H80.52v1.16h1.427V14.83z"/>
	</g>
	<g>
		<rect x="62.21" y="20.318" fill="none" width="23.187" height="7.634"/>
		<path fill="#FFFFFF" d="M66.031,20.514h1.978v0.397h-1.504v1.22h1.389v0.392h-1.389v1.662h-0.474V20.514z"/>
		<path fill="#FFFFFF" d="M70.629,21.047h-1.351l-0.136,0.91c0.082-0.011,0.158-0.022,0.289-0.022c0.272,0,0.545,0.06,0.763,0.191
			c0.278,0.158,0.507,0.463,0.507,0.91c0,0.692-0.55,1.209-1.318,1.209c-0.387,0-0.714-0.109-0.882-0.218l0.12-0.365
			c0.147,0.087,0.436,0.196,0.757,0.196c0.452,0,0.839-0.294,0.839-0.768c-0.005-0.458-0.311-0.785-1.019-0.785
			c-0.202,0-0.36,0.022-0.491,0.038l0.229-1.7h1.694V21.047z"/>
		<path fill="#FFFFFF" d="M73.38,22.464h-1.427v1.324h1.591v0.397h-2.064v-3.671h1.983v0.397h-1.509v1.16h1.427V22.464z"/>
		<path fill="#FFFFFF" d="M76.012,20.982c-0.098-0.005-0.223,0-0.359,0.022c-0.752,0.125-1.149,0.675-1.231,1.258h0.017
			c0.169-0.224,0.463-0.409,0.855-0.409c0.626,0,1.068,0.452,1.068,1.144c0,0.648-0.441,1.248-1.177,1.248
			c-0.757,0-1.253-0.588-1.253-1.509c0-0.697,0.25-1.247,0.599-1.596c0.294-0.289,0.687-0.469,1.133-0.523
			c0.142-0.022,0.261-0.027,0.349-0.027V20.982z M75.875,23.025c0-0.507-0.289-0.812-0.73-0.812c-0.289,0-0.556,0.18-0.687,0.436
			c-0.032,0.055-0.054,0.125-0.054,0.212c0.011,0.583,0.278,1.013,0.779,1.013C75.598,23.875,75.875,23.531,75.875,23.025z"/>
		<path fill="#FFFFFF" d="M77.826,21.091h-0.011L77.2,21.423l-0.093-0.365l0.773-0.414h0.409v3.541h-0.463V21.091z"/>
		<path fill="#FFFFFF" d="M79.75,20.514h1.978v0.397h-1.504v1.22h1.389v0.392h-1.389v1.662H79.75V20.514z"/>
	</g>
	<g>
	</g>
	<g>
	</g>
	<g>
	</g>
	<g>
	</g>
	<g>
	</g>
	<g>
	</g>
	<g>
	</g>
	<g>
	</g>
	<g>
	</g>
	<g>
	</g>
	<g>
	</g>
	<g>
	</g>
	<g>
	</g>
	<g>
	</g>
	<g>
	</g>
</g>
</svg>
